<?xml version="1.0" encoding="UTF-8" standalone="no"?>
<!-- Created with Inkscape (http://www.inkscape.org/) -->

<svg
   xmlns:dc="http://purl.org/dc/elements/1.1/"
   xmlns:cc="http://creativecommons.org/ns#"
   xmlns:rdf="http://www.w3.org/1999/02/22-rdf-syntax-ns#"
   xmlns:svg="http://www.w3.org/2000/svg"
   xmlns="http://www.w3.org/2000/svg"
   xmlns:sodipodi="http://sodipodi.sourceforge.net/DTD/sodipodi-0.dtd"
   xmlns:inkscape="http://www.inkscape.org/namespaces/inkscape"
   width="210mm"
   height="297mm"
   viewBox="0 0 210 297"
   version="1.1"
   id="svg8"
   inkscape:version="0.92.5 (2060ec1f9f, 2020-04-08)"
   sodipodi:docname="cow.svg"
   inkscape:export-filename="/home/franck/Desktop/cow.png"
   inkscape:export-xdpi="5.8099999"
   inkscape:export-ydpi="5.8099999">
  <defs
     id="defs2" />
  <sodipodi:namedview
     id="base"
     pagecolor="#ffffff"
     bordercolor="#666666"
     borderopacity="1.0"
     inkscape:pageopacity="0.0"
     inkscape:pageshadow="2"
     inkscape:zoom="0.24748737"
     inkscape:cx="-1419.9618"
     inkscape:cy="182.9421"
     inkscape:document-units="mm"
     inkscape:current-layer="layer1"
     showgrid="false"
     inkscape:window-width="1916"
     inkscape:window-height="1074"
     inkscape:window-x="0"
     inkscape:window-y="0"
     inkscape:window-maximized="1" />
  <metadata
     id="metadata5">
    <rdf:RDF>
      <cc:Work
         rdf:about="">
        <dc:format>image/svg+xml</dc:format>
        <dc:type
           rdf:resource="http://purl.org/dc/dcmitype/StillImage" />
        <dc:title></dc:title>
      </cc:Work>
    </rdf:RDF>
  </metadata>
  <g
     inkscape:label="Layer 1"
     inkscape:groupmode="layer"
     id="layer1">
    <text
       xml:space="preserve"
       style="font-style:normal;font-variant:normal;font-weight:normal;font-stretch:normal;font-size:290.4342041px;line-height:1000%;font-family:'Baekmuk Batang';-inkscape-font-specification:'Baekmuk Batang, Normal';font-variant-ligatures:normal;font-variant-caps:normal;font-variant-numeric:normal;font-feature-settings:normal;text-align:start;letter-spacing:-118.63881683px;word-spacing:0px;writing-mode:lr-tb;text-anchor:start;fill:#000000;fill-opacity:1;stroke:none;stroke-width:1.51267135px;stroke-linecap:butt;stroke-linejoin:miter;stroke-opacity:1"
       x="0.45215061"
       y="208.59886"
       id="text146"
       transform="scale(1.0515632,0.9509652)"><tspan
         sodipodi:role="line"
         id="tspan144"
         x="0.45215061"
         y="208.59886"
         style="font-style:normal;font-variant:normal;font-weight:normal;font-stretch:normal;font-size:290.4342041px;font-family:'Baekmuk Batang';-inkscape-font-specification:'Baekmuk Batang, Normal';font-variant-ligatures:normal;font-variant-caps:normal;font-variant-numeric:normal;font-feature-settings:normal;text-align:start;writing-mode:lr-tb;text-anchor:start;stroke-width:1.51267135px">C</tspan></text>
    <path
       inkscape:connector-curvature="0"
       id="path81"
       d="m 81.586,163.12745 c -3.826071,-5.4625 -3.674139,-6.49091 2.374942,-16.07645 l 5.184403,-8.21535 -6.53011,-19.00515 c -4.430169,-12.89351 -8.379346,-20.965942 -12.28055,-25.102422 -5.196698,-5.51011 -6.740478,-6.097219 -16.03222,-6.097219 -12.457861,0 -13.384277,2.739533 -4.074667,12.049151 5.259938,5.25995 7.488666,6.20714 14.605025,6.20714 6.094856,0 8.397891,0.72146 8.397891,2.6307 0,1.4469 -0.879851,3.1745 -1.955247,3.83913 -3.865213,2.38882 -18.135002,-1.23567 -23.872743,-6.06366 C 41.2911,102.15072 33.945643,87.988647 35.818336,84.958558 36.431762,83.966046 43.964829,83.15397 52.558522,83.15397 h 15.624877 l 6.806632,6.846106 c 5.425888,5.457355 8.190454,11.012384 13.628381,27.384454 l 6.821728,20.5383 h 12.47753 12.4775 l 6.82173,-20.5383 c 5.43793,-16.37207 8.20249,-21.927099 13.62838,-27.384454 l 6.80665,-6.846106 h 15.62488 c 8.59366,0 16.09912,0.767375 16.67879,1.705296 1.91897,3.10495 -4.76791,16.417024 -10.99129,21.881234 -6.08904,5.34624 -20.24836,9.18509 -24.40447,6.61648 -4.88307,-3.01791 -1.57913,-6.0414 7.56145,-6.9197 7.99642,-0.76837 10.32958,-1.88812 14.60503,-7.009435 7.58512,-9.085748 6.762,-10.796986 -5.19347,-10.796986 -9.36576,0 -10.81328,0.563542 -16.24739,6.325365 -4.21755,4.471919 -7.79587,11.827456 -12.21184,25.102416 l -6.24624,18.77701 5.51939,8.84396 c 5.17808,8.29707 5.3513,9.14375 2.80125,13.69221 -2.70112,4.81792 -2.86826,4.85143 -26.70087,5.35669 -23.087158,0.48942 -24.090244,0.35496 -26.86115,-3.60106 z m 14.453273,-4.66629 c -0.723389,-1.75717 -1.728638,-4.63253 -2.233873,-6.3897 -1.226614,-4.26605 -3.566334,-4.03423 -6.046004,0.59906 -2.843856,5.31381 -0.891266,8.98549 4.778453,8.98549 3.871279,0 4.558534,-0.62707 3.501424,-3.19485 z m 17.156677,-0.91281 c 4.76489,-12.73705 4.94224,-12.32299 -5.27828,-12.32299 -8.88345,0 -9.307214,0.21504 -8.094578,4.10767 3.215308,10.32139 4.530068,12.32298 8.094578,12.32298 2.2078,0 4.37154,-1.68387 5.27828,-4.10766 z m 15.91431,1.51188 c 1.10834,-2.88832 -2.19647,-10.18362 -4.61325,-10.18362 -0.85167,0 -1.96186,1.43768 -2.4671,3.19485 -0.50523,1.75717 -1.51048,4.63253 -2.23387,6.3897 -1.05711,2.56778 -0.36985,3.19485 3.50142,3.19485 2.6492,0 5.26494,-1.16811 5.8128,-2.59578 z M 79.03272,83.084796 C 69.550216,77.31814 61.1003,55.690873 67.816096,54.376246 c 1.957427,-0.383174 3.475296,1.974012 5.041212,7.828757 2.914078,10.895444 9.845539,18.085341 15.46525,16.041878 5.184128,-1.88508 31.676562,-1.932707 38.346312,-0.0689 6.71203,1.875589 13.24726,-4.524945 16.30913,-15.97294 1.57331,-5.882435 3.07454,-8.204509 5.04122,-7.797752 6.71114,1.388019 -1.69863,22.889302 -11.21665,28.677525 -4.48237,2.725898 -6.64341,3.050562 -10.4237,1.565966 -2.62296,-1.030098 -10.9305,-1.872888 -18.4612,-1.872888 -7.53073,0 -15.838273,0.84279 -18.461223,1.872877 -3.780296,1.484607 -5.941331,1.159943 -10.423727,-1.565955 z"
       style="fill:#000000;fill-opacity:1;stroke-width:1.82562828" />
  </g>
</svg>
